# xmcd
#
# Track frame offsets:
#	183
#	16860
#	28340
#	40533
#	53163
#	66693
#	76565
#	87435
#	96640
#	110055
#	118945
#	134370
#	147215
#	158060
#
# Disc length: 2245 seconds
#
# Revision: 0
# Processed by: cddbd v1.4PL0 Copyright (c) Steve Scherf et al.
# Submitted via: EasyCDDAExtractor 4.5.0.2
#
DISCID=c208c30e
DTITLE=Patsy Cline - Greatest Hits
DYEAR=1900
DGENRE=Blues
TTITLE0=Faded Love
TTITLE1=Sweet Dreams (Of You)
TTITLE2=Crazy
TTITLE3=I Fall To Pieces
TTITLE4=So Wrong
TTITLE5=Strange
TTITLE6=South Of The Border
TTITLE7=Back in Baby's Arms
TTITLE8=She's Got You
TTITLE9=Walking After Midnight
TTITLE10=Why Can't He Be You
TTITLE11=You're Stronger Than Me
TTITLE12=Leavin' On Your Mind
TTITLE13=San Antonio Rose
EXTD=
EXTT0=
EXTT1=
EXTT2=
EXTT3=
EXTT4=
EXTT5=
EXTT6=
EXTT7=
EXTT8=
EXTT9=
EXTT10=
EXTT11=
EXTT12=
EXTT13=
PLAYORDER=
